<svg width="150" height="15" viewBox="0 0 150 15" fill="none" xmlns="http://www.w3.org/2000/svg">
<g filter="url(#filter0_i_2_9)">
<path d="M9.13477 12.3213L9.1084 7.62793H4.95996V8.99902H7.56152L7.54395 11.873C7.40918 12.0664 7.24219 12.2246 7.04297 12.3477C6.84375 12.4648 6.62988 12.5586 6.40137 12.6289C6.17285 12.6992 5.93555 12.7461 5.68945 12.7695C5.44922 12.793 5.21777 12.8018 4.99512 12.7959C4.6084 12.79 4.2627 12.7227 3.95801 12.5938C3.65332 12.459 3.38672 12.2803 3.1582 12.0576C2.92383 11.835 2.72461 11.5771 2.56055 11.2842C2.39648 10.9912 2.26172 10.6807 2.15625 10.3525C2.05078 10.0244 1.97168 9.69043 1.91895 9.35059C1.87207 9.00488 1.8457 8.6709 1.83984 8.34863V6.8457C1.83984 6.5293 1.86035 6.20117 1.90137 5.86133C1.94238 5.52148 2.00977 5.1875 2.10352 4.85938C2.19727 4.53125 2.31738 4.2207 2.46387 3.92773C2.61035 3.62891 2.79492 3.36816 3.01758 3.14551C3.24023 2.92285 3.50098 2.74707 3.7998 2.61816C4.09863 2.4834 4.44141 2.41602 4.82812 2.41602C5.23242 2.41602 5.58691 2.48047 5.8916 2.60938C6.19629 2.73242 6.45996 2.90527 6.68262 3.12793C6.89941 3.35059 7.0752 3.62012 7.20996 3.93652C7.34473 4.24707 7.44434 4.58691 7.50879 4.95605H9.11719C9.06445 4.3584 8.92383 3.81934 8.69531 3.33887C8.4668 2.85254 8.16504 2.43652 7.79004 2.09082C7.41504 1.75098 6.97559 1.49023 6.47168 1.30859C5.96777 1.12109 5.41699 1.02734 4.81934 1.02734C4.28027 1.02734 3.79395 1.10645 3.36035 1.26465C2.92676 1.42285 2.54004 1.63672 2.2002 1.90625C1.85449 2.18164 1.55859 2.50684 1.3125 2.88184C1.06641 3.25098 0.861328 3.65234 0.697266 4.08594C0.533203 4.51953 0.410156 4.97363 0.328125 5.44824C0.251953 5.91699 0.210938 6.38867 0.205078 6.86328V8.34863C0.210938 8.8291 0.257812 9.30664 0.345703 9.78125C0.439453 10.25 0.577148 10.6982 0.758789 11.126C0.93457 11.5596 1.1543 11.9609 1.41797 12.3301C1.68164 12.6992 1.98926 13.0186 2.34082 13.2881C2.69238 13.5635 3.08789 13.7803 3.52734 13.9385C3.97266 14.0908 4.45898 14.1699 4.98633 14.1758C5.50781 14.1816 6.00586 14.123 6.48047 14C6.95508 13.8828 7.39746 13.7012 7.80762 13.4551C8.04785 13.3145 8.2793 13.1504 8.50195 12.9629C8.72461 12.7695 8.93555 12.5557 9.13477 12.3213ZM11.9209 4.49023V5.90527H15.1553V12.5938H11.9209V14H19.8838V12.5938H16.7812V4.49023H11.9209ZM14.9443 1.99414C14.9443 2.25781 15.0234 2.47754 15.1816 2.65332C15.3457 2.8291 15.5918 2.91699 15.9199 2.91699C16.2422 2.91699 16.4854 2.8291 16.6494 2.65332C16.8135 2.47754 16.8955 2.25781 16.8955 1.99414C16.8955 1.84766 16.8721 1.71289 16.8252 1.58984C16.7783 1.4668 16.708 1.36426 16.6143 1.28223C16.5381 1.20605 16.4414 1.14746 16.3242 1.10645C16.207 1.05957 16.0723 1.03613 15.9199 1.03613C15.7676 1.03613 15.6299 1.05957 15.5068 1.10645C15.3896 1.14746 15.293 1.20605 15.2168 1.28223C15.123 1.37012 15.0527 1.47559 15.0059 1.59863C14.9648 1.72168 14.9443 1.85352 14.9443 1.99414ZM26.3262 2.1875H24.6914V4.49023H22.1953V5.74707H24.6914V10.915C24.6914 11.501 24.7676 12.002 24.9199 12.418C25.0781 12.8281 25.292 13.1621 25.5615 13.4199C25.8311 13.6836 26.1475 13.877 26.5107 14C26.8799 14.1172 27.2754 14.1758 27.6973 14.1758C27.9492 14.1758 28.2012 14.1641 28.4531 14.1406C28.7109 14.1172 28.9541 14.082 29.1826 14.0352C29.4111 13.9941 29.6221 13.9443 29.8154 13.8857C30.0088 13.8213 30.1729 13.748 30.3076 13.666L30.0791 12.5146C29.9795 12.5381 29.8506 12.5674 29.6924 12.6025C29.54 12.6318 29.376 12.6611 29.2002 12.6904C29.0186 12.7197 28.834 12.7461 28.6465 12.7695C28.459 12.7871 28.2773 12.7959 28.1016 12.7959C27.8613 12.7959 27.6328 12.7666 27.416 12.708C27.2051 12.6494 27.0176 12.5469 26.8535 12.4004C26.6895 12.2598 26.5605 12.0693 26.4668 11.8291C26.373 11.5889 26.3262 11.2842 26.3262 10.915V5.74707H29.9473V4.49023H26.3262V2.1875ZM41.3115 14V1.20312H39.7734V6.70508H34.5264V1.20312H32.9971V14H34.5264V8.08496H39.7734V14H41.3115ZM50.3643 14H51.8408V4.49023H50.2061V11.3105C50.1182 11.5156 50.0068 11.7061 49.8721 11.8818C49.7432 12.0518 49.5908 12.1982 49.415 12.3213C49.2041 12.4736 48.9551 12.5938 48.668 12.6816C48.3809 12.7637 48.0557 12.8047 47.6924 12.8047C47.3818 12.8047 47.1064 12.7637 46.8662 12.6816C46.6318 12.5996 46.4326 12.4561 46.2686 12.251C46.1045 12.0518 45.9814 11.7822 45.8994 11.4424C45.8174 11.1025 45.7764 10.6748 45.7764 10.1592V4.49023H44.1504V10.1416C44.1504 10.8506 44.2266 11.46 44.3789 11.9697C44.5371 12.4736 44.7598 12.8896 45.0469 13.2178C45.334 13.5459 45.6797 13.7891 46.084 13.9473C46.4883 14.0996 46.9395 14.1758 47.4375 14.1758C48.0586 14.1758 48.6064 14.0469 49.0811 13.7891C49.5557 13.5254 49.9512 13.1592 50.2676 12.6904L50.3643 14ZM62.9678 9.35059V9.16602C62.9678 8.66797 62.9268 8.19629 62.8447 7.75098C62.7627 7.2998 62.6426 6.88965 62.4844 6.52051C62.332 6.19238 62.1562 5.89648 61.957 5.63281C61.7578 5.36328 61.5322 5.13477 61.2803 4.94727C60.999 4.74805 60.6855 4.59277 60.3398 4.48145C59.9941 4.37012 59.6162 4.31445 59.2061 4.31445C58.8779 4.31445 58.5732 4.34668 58.292 4.41113C58.0107 4.47559 57.7529 4.56934 57.5186 4.69238C57.3311 4.79199 57.1553 4.91211 56.9912 5.05273C56.8271 5.1875 56.6777 5.33984 56.543 5.50977V0.5H54.917V14H56.4111L56.4902 12.9189C56.5957 13.0537 56.707 13.1768 56.8242 13.2881C56.9414 13.3994 57.0645 13.502 57.1934 13.5957C57.4629 13.7832 57.7646 13.9268 58.0986 14.0264C58.4385 14.126 58.8135 14.1758 59.2236 14.1758C59.5811 14.1758 59.9121 14.1318 60.2168 14.0439C60.5273 13.9561 60.8115 13.833 61.0693 13.6748C61.4268 13.4463 61.7314 13.1592 61.9834 12.8135C62.2412 12.4619 62.4492 12.0664 62.6074 11.627C62.7246 11.293 62.8125 10.9355 62.8711 10.5547C62.9355 10.168 62.9678 9.7666 62.9678 9.35059ZM61.3418 9.16602V9.35059C61.3418 9.63184 61.3242 9.90723 61.2891 10.1768C61.2539 10.4463 61.1982 10.6982 61.1221 10.9326C61.0283 11.2432 60.9023 11.5244 60.7441 11.7764C60.5859 12.0283 60.3896 12.2363 60.1553 12.4004C59.9795 12.5293 59.7803 12.6289 59.5576 12.6992C59.335 12.7637 59.0889 12.7959 58.8193 12.7959C58.5381 12.7959 58.2803 12.7607 58.0459 12.6904C57.8115 12.6143 57.6006 12.5088 57.4131 12.374C57.2256 12.2393 57.0586 12.084 56.9121 11.9082C56.7715 11.7266 56.6484 11.5303 56.543 11.3193V7.16211C56.6426 6.95117 56.7627 6.75781 56.9033 6.58203C57.0498 6.40039 57.2168 6.24219 57.4043 6.10742C57.5859 5.97852 57.7939 5.87891 58.0283 5.80859C58.2627 5.73242 58.5205 5.69434 58.8018 5.69434C59.0596 5.69434 59.2939 5.72363 59.5049 5.78223C59.7158 5.84082 59.9062 5.92285 60.0762 6.02832C60.3223 6.1748 60.5303 6.37695 60.7002 6.63477C60.8701 6.89258 61.0078 7.17676 61.1133 7.4873C61.1895 7.73926 61.2451 8.00879 61.2803 8.2959C61.3213 8.57715 61.3418 8.86719 61.3418 9.16602ZM68.9883 12.9453C68.9883 13.2852 69.0938 13.5752 69.3047 13.8154C69.5215 14.0498 69.8408 14.167 70.2627 14.167C70.6787 14.167 70.998 14.0498 71.2207 13.8154C71.4434 13.5811 71.5547 13.291 71.5547 12.9453C71.5547 12.5938 71.4434 12.2979 71.2207 12.0576C71.0039 11.8115 70.6846 11.6885 70.2627 11.6885C69.835 11.6885 69.5156 11.8115 69.3047 12.0576C69.0938 12.3037 68.9883 12.5996 68.9883 12.9453ZM68.9883 5.24609C68.9883 5.58594 69.0938 5.87598 69.3047 6.11621C69.5215 6.35059 69.8408 6.46777 70.2627 6.46777C70.6787 6.46777 70.998 6.35059 71.2207 6.11621C71.4434 5.88184 71.5547 5.5918 71.5547 5.24609C71.5547 4.89453 71.4434 4.59863 71.2207 4.3584C71.0039 4.1123 70.6846 3.98926 70.2627 3.98926C69.835 3.98926 69.5156 4.1123 69.3047 4.3584C69.0938 4.60449 68.9883 4.90039 68.9883 5.24609ZM94.459 8.34863V6.96875H89.1328V2.5918H95.3467V1.20312H87.4893V14H89.1328V8.34863H94.459ZM98.4053 0.5V1.91504H101.64V12.5938H98.4053V14H106.368V12.5938H103.266V0.5H98.4053ZM114.234 14V1.20312H114.103L109.26 3.06641V4.55176L112.608 3.27734V14H114.234ZM123.621 2.1875H121.986V4.49023H119.49V5.74707H121.986V10.915C121.986 11.501 122.062 12.002 122.215 12.418C122.373 12.8281 122.587 13.1621 122.856 13.4199C123.126 13.6836 123.442 13.877 123.806 14C124.175 14.1172 124.57 14.1758 124.992 14.1758C125.244 14.1758 125.496 14.1641 125.748 14.1406C126.006 14.1172 126.249 14.082 126.478 14.0352C126.706 13.9941 126.917 13.9443 127.11 13.8857C127.304 13.8213 127.468 13.748 127.603 13.666L127.374 12.5146C127.274 12.5381 127.146 12.5674 126.987 12.6025C126.835 12.6318 126.671 12.6611 126.495 12.6904C126.313 12.7197 126.129 12.7461 125.941 12.7695C125.754 12.7871 125.572 12.7959 125.396 12.7959C125.156 12.7959 124.928 12.7666 124.711 12.708C124.5 12.6494 124.312 12.5469 124.148 12.4004C123.984 12.2598 123.855 12.0693 123.762 11.8291C123.668 11.5889 123.621 11.2842 123.621 10.915V5.74707H127.242V4.49023H123.621V2.1875ZM132.533 12.6729L138.272 5.6416V4.49023H130.538V5.83496H136.137L130.459 12.8047V14H138.589V12.6729H132.533ZM141.647 4.49023V5.90527H144.882V12.5938H141.647V14H149.61V12.5938H146.508V4.49023H141.647ZM144.671 1.99414C144.671 2.25781 144.75 2.47754 144.908 2.65332C145.072 2.8291 145.318 2.91699 145.646 2.91699C145.969 2.91699 146.212 2.8291 146.376 2.65332C146.54 2.47754 146.622 2.25781 146.622 1.99414C146.622 1.84766 146.599 1.71289 146.552 1.58984C146.505 1.4668 146.435 1.36426 146.341 1.28223C146.265 1.20605 146.168 1.14746 146.051 1.10645C145.934 1.05957 145.799 1.03613 145.646 1.03613C145.494 1.03613 145.356 1.05957 145.233 1.10645C145.116 1.14746 145.02 1.20605 144.943 1.28223C144.85 1.37012 144.779 1.47559 144.732 1.59863C144.691 1.72168 144.671 1.85352 144.671 1.99414Z" fill="#45E7CA"/>
</g>
<defs>
<filter id="filter0_i_2_9" x="0.205078" y="0.5" width="149.405" height="17.6846" filterUnits="userSpaceOnUse" color-interpolation-filters="sRGB">
<feFlood flood-opacity="0" result="BackgroundImageFix"/>
<feBlend mode="normal" in="SourceGraphic" in2="BackgroundImageFix" result="shape"/>
<feColorMatrix in="SourceAlpha" type="matrix" values="0 0 0 0 0 0 0 0 0 0 0 0 0 0 0 0 0 0 127 0" result="hardAlpha"/>
<feOffset dy="4"/>
<feGaussianBlur stdDeviation="2"/>
<feComposite in2="hardAlpha" operator="arithmetic" k2="-1" k3="1"/>
<feColorMatrix type="matrix" values="0 0 0 0 0 0 0 0 0 0 0 0 0 0 0 0 0 0 0.25 0"/>
<feBlend mode="normal" in2="shape" result="effect1_innerShadow_2_9"/>
</filter>
</defs>
</svg>
