<svg width="290" height="18" viewBox="0 0 290 18" fill="none" xmlns="http://www.w3.org/2000/svg">
<g filter="url(#filter0_i_2_6)">
<path d="M7.62695 8.08496V6.70508H2.2832V2.5918H8.43555V1.20312H0.657227V14H8.51465V12.6201H2.2832V8.08496H7.62695ZM18.5078 9.06934V7.7334H11.7842V9.06934H18.5078ZM23.9922 1.20312H21.9795V14H23.5615V8.89355L23.4297 3.73438L25.6006 10.4404H26.5322L28.8965 3.5498L28.7646 8.89355V14H30.3467V1.20312H28.3252L26.0752 7.60156L23.9922 1.20312ZM39.2676 14H40.9639V13.8594C40.8584 13.5957 40.7764 13.2881 40.7178 12.9365C40.6592 12.5791 40.6299 12.2422 40.6299 11.9258V7.50488C40.6299 6.97168 40.5332 6.50586 40.3398 6.10742C40.1465 5.70898 39.8828 5.375 39.5488 5.10547C39.209 4.8418 38.8076 4.64551 38.3447 4.5166C37.8818 4.38184 37.3809 4.31445 36.8418 4.31445C36.25 4.31445 35.7197 4.39648 35.251 4.56055C34.7881 4.72461 34.3955 4.93848 34.0732 5.20215C33.7451 5.47168 33.4932 5.77344 33.3174 6.10742C33.1475 6.44141 33.0596 6.78125 33.0537 7.12695H34.6885C34.6885 6.92773 34.7354 6.7373 34.8291 6.55566C34.9287 6.36816 35.0664 6.20703 35.2422 6.07227C35.418 5.9375 35.6318 5.8291 35.8838 5.74707C36.1416 5.66504 36.4316 5.62402 36.7539 5.62402C37.0996 5.62402 37.4102 5.66797 37.6855 5.75586C37.9668 5.84375 38.2041 5.9668 38.3975 6.125C38.5908 6.28906 38.7402 6.48535 38.8457 6.71387C38.9512 6.94238 39.0039 7.2002 39.0039 7.4873V8.23438H37.2285C36.5664 8.23438 35.9658 8.29883 35.4268 8.42773C34.8936 8.55664 34.4365 8.75 34.0557 9.00781C33.6748 9.27148 33.3789 9.59961 33.168 9.99219C32.9629 10.3848 32.8604 10.8418 32.8604 11.3633C32.8604 11.7617 32.9365 12.1338 33.0889 12.4795C33.2471 12.8193 33.4697 13.1123 33.7568 13.3584C34.0381 13.6104 34.3809 13.8096 34.7852 13.9561C35.1953 14.1025 35.6523 14.1758 36.1562 14.1758C36.4668 14.1758 36.7598 14.1436 37.0352 14.0791C37.3105 14.0146 37.5713 13.9268 37.8174 13.8154C38.0576 13.7041 38.2773 13.5752 38.4766 13.4287C38.6816 13.2822 38.8662 13.127 39.0303 12.9629C39.0479 13.1621 39.0742 13.3555 39.1094 13.543C39.1504 13.7246 39.2031 13.877 39.2676 14ZM36.3936 12.7607C36.0771 12.7607 35.7988 12.7197 35.5586 12.6377C35.3184 12.5557 35.1191 12.4414 34.9609 12.2949C34.8027 12.1543 34.6826 11.9844 34.6006 11.7852C34.5244 11.5859 34.4863 11.3691 34.4863 11.1348C34.4863 10.8887 34.5303 10.6689 34.6182 10.4756C34.7119 10.2822 34.8467 10.1152 35.0225 9.97461C35.2686 9.77539 35.5996 9.62891 36.0156 9.53516C36.4375 9.43555 36.9297 9.38574 37.4922 9.38574H39.0039V11.3105C38.9102 11.498 38.7812 11.6797 38.6172 11.8555C38.4531 12.0254 38.2598 12.1777 38.0371 12.3125C37.8086 12.4473 37.5566 12.5557 37.2812 12.6377C37.0059 12.7197 36.71 12.7607 36.3936 12.7607ZM44.084 4.49023V5.90527H47.3184V12.5938H44.084V14H52.0469V12.5938H48.9443V4.49023H44.084ZM47.1074 1.99414C47.1074 2.25781 47.1865 2.47754 47.3447 2.65332C47.5088 2.8291 47.7549 2.91699 48.083 2.91699C48.4053 2.91699 48.6484 2.8291 48.8125 2.65332C48.9766 2.47754 49.0586 2.25781 49.0586 1.99414C49.0586 1.84766 49.0352 1.71289 48.9883 1.58984C48.9414 1.4668 48.8711 1.36426 48.7773 1.28223C48.7012 1.20605 48.6045 1.14746 48.4873 1.10645C48.3701 1.05957 48.2354 1.03613 48.083 1.03613C47.9307 1.03613 47.793 1.05957 47.6699 1.10645C47.5527 1.14746 47.4561 1.20605 47.3799 1.28223C47.2861 1.37012 47.2158 1.47559 47.1689 1.59863C47.1279 1.72168 47.1074 1.85352 47.1074 1.99414ZM54.8945 0.5V1.91504H58.1289V12.5938H54.8945V14H62.8574V12.5938H59.7549V0.5H54.8945ZM68.7197 12.9453C68.7197 13.2852 68.8252 13.5752 69.0361 13.8154C69.2529 14.0498 69.5723 14.167 69.9941 14.167C70.4102 14.167 70.7295 14.0498 70.9521 13.8154C71.1748 13.5811 71.2861 13.291 71.2861 12.9453C71.2861 12.5938 71.1748 12.2979 70.9521 12.0576C70.7354 11.8115 70.416 11.6885 69.9941 11.6885C69.5664 11.6885 69.2471 11.8115 69.0361 12.0576C68.8252 12.3037 68.7197 12.5996 68.7197 12.9453ZM68.7197 5.24609C68.7197 5.58594 68.8252 5.87598 69.0361 6.11621C69.2529 6.35059 69.5723 6.46777 69.9941 6.46777C70.4102 6.46777 70.7295 6.35059 70.9521 6.11621C71.1748 5.88184 71.2861 5.5918 71.2861 5.24609C71.2861 4.89453 71.1748 4.59863 70.9521 4.3584C70.7354 4.1123 70.416 3.98926 69.9941 3.98926C69.5664 3.98926 69.2471 4.1123 69.0361 4.3584C68.8252 4.60449 68.7197 4.90039 68.7197 5.24609ZM89.9189 9.56152L93.4082 14H95.4736L91.0352 8.4541L94.8848 4.49023H92.9072L89.7871 7.61914L88.7236 8.76172V0.5H87.0889V14H88.7236V10.7129L89.9189 9.56152ZM97.4248 9.15723V9.35059C97.4248 10.0361 97.5244 10.6719 97.7236 11.2578C97.9229 11.8438 98.21 12.3535 98.585 12.7871C98.9541 13.2207 99.4053 13.5605 99.9385 13.8066C100.478 14.0527 101.084 14.1758 101.758 14.1758C102.426 14.1758 103.026 14.0527 103.56 13.8066C104.093 13.5605 104.547 13.2207 104.922 12.7871C105.291 12.3535 105.575 11.8438 105.774 11.2578C105.974 10.6719 106.073 10.0361 106.073 9.35059V9.15723C106.073 8.47168 105.974 7.83594 105.774 7.25C105.575 6.6582 105.291 6.14551 104.922 5.71191C104.547 5.27832 104.09 4.93848 103.551 4.69238C103.018 4.44043 102.414 4.31445 101.74 4.31445C101.072 4.31445 100.472 4.44043 99.9385 4.69238C99.4053 4.93848 98.9541 5.27832 98.585 5.71191C98.21 6.14551 97.9229 6.6582 97.7236 7.25C97.5244 7.83594 97.4248 8.47168 97.4248 9.15723ZM99.0508 9.35059V9.15723C99.0508 8.69434 99.1064 8.25195 99.2178 7.83008C99.3291 7.40234 99.499 7.02734 99.7275 6.70508C99.9502 6.38281 100.229 6.12793 100.562 5.94043C100.896 5.74707 101.289 5.65039 101.74 5.65039C102.191 5.65039 102.584 5.74707 102.918 5.94043C103.258 6.12793 103.542 6.38281 103.771 6.70508C103.993 7.02734 104.16 7.40234 104.271 7.83008C104.389 8.25195 104.447 8.69434 104.447 9.15723V9.35059C104.447 9.81934 104.392 10.2676 104.28 10.6953C104.169 11.1172 104.002 11.4893 103.779 11.8115C103.551 12.1338 103.267 12.3887 102.927 12.5762C102.593 12.7637 102.203 12.8574 101.758 12.8574C101.307 12.8574 100.911 12.7637 100.571 12.5762C100.231 12.3887 99.9502 12.1338 99.7275 11.8115C99.499 11.4893 99.3291 11.1172 99.2178 10.6953C99.1064 10.2676 99.0508 9.81934 99.0508 9.35059ZM108.692 14H110.318V7.17969C110.43 6.97461 110.559 6.78711 110.705 6.61719C110.857 6.44727 111.021 6.29785 111.197 6.16895C111.414 6.02246 111.651 5.9082 111.909 5.82617C112.167 5.73828 112.445 5.69434 112.744 5.69434C113.09 5.69434 113.395 5.73535 113.658 5.81738C113.928 5.89941 114.156 6.03125 114.344 6.21289C114.525 6.39453 114.663 6.63184 114.757 6.9248C114.851 7.21777 114.897 7.5752 114.897 7.99707V14H116.523V7.96191C116.523 7.3291 116.444 6.78418 116.286 6.32715C116.134 5.86426 115.914 5.4834 115.627 5.18457C115.34 4.88574 114.991 4.66602 114.581 4.52539C114.177 4.38477 113.726 4.31445 113.228 4.31445C112.858 4.32031 112.507 4.37598 112.173 4.48145C111.845 4.58105 111.54 4.72461 111.259 4.91211C111.071 5.03516 110.893 5.18164 110.723 5.35156C110.559 5.51562 110.406 5.69727 110.266 5.89648L110.151 4.49023H108.692V14ZM123.353 2.1875H121.718V4.49023H119.222V5.74707H121.718V10.915C121.718 11.501 121.794 12.002 121.946 12.418C122.104 12.8281 122.318 13.1621 122.588 13.4199C122.857 13.6836 123.174 13.877 123.537 14C123.906 14.1172 124.302 14.1758 124.724 14.1758C124.976 14.1758 125.228 14.1641 125.479 14.1406C125.737 14.1172 125.98 14.082 126.209 14.0352C126.438 13.9941 126.648 13.9443 126.842 13.8857C127.035 13.8213 127.199 13.748 127.334 13.666L127.105 12.5146C127.006 12.5381 126.877 12.5674 126.719 12.6025C126.566 12.6318 126.402 12.6611 126.227 12.6904C126.045 12.7197 125.86 12.7461 125.673 12.7695C125.485 12.7871 125.304 12.7959 125.128 12.7959C124.888 12.7959 124.659 12.7666 124.442 12.708C124.231 12.6494 124.044 12.5469 123.88 12.4004C123.716 12.2598 123.587 12.0693 123.493 11.8291C123.399 11.5889 123.353 11.2842 123.353 10.915V5.74707H126.974V4.49023H123.353V2.1875ZM136.562 14H138.259V13.8594C138.153 13.5957 138.071 13.2881 138.013 12.9365C137.954 12.5791 137.925 12.2422 137.925 11.9258V7.50488C137.925 6.97168 137.828 6.50586 137.635 6.10742C137.441 5.70898 137.178 5.375 136.844 5.10547C136.504 4.8418 136.103 4.64551 135.64 4.5166C135.177 4.38184 134.676 4.31445 134.137 4.31445C133.545 4.31445 133.015 4.39648 132.546 4.56055C132.083 4.72461 131.69 4.93848 131.368 5.20215C131.04 5.47168 130.788 5.77344 130.612 6.10742C130.442 6.44141 130.354 6.78125 130.349 7.12695H131.983C131.983 6.92773 132.03 6.7373 132.124 6.55566C132.224 6.36816 132.361 6.20703 132.537 6.07227C132.713 5.9375 132.927 5.8291 133.179 5.74707C133.437 5.66504 133.727 5.62402 134.049 5.62402C134.395 5.62402 134.705 5.66797 134.98 5.75586C135.262 5.84375 135.499 5.9668 135.692 6.125C135.886 6.28906 136.035 6.48535 136.141 6.71387C136.246 6.94238 136.299 7.2002 136.299 7.4873V8.23438H134.523C133.861 8.23438 133.261 8.29883 132.722 8.42773C132.188 8.55664 131.731 8.75 131.351 9.00781C130.97 9.27148 130.674 9.59961 130.463 9.99219C130.258 10.3848 130.155 10.8418 130.155 11.3633C130.155 11.7617 130.231 12.1338 130.384 12.4795C130.542 12.8193 130.765 13.1123 131.052 13.3584C131.333 13.6104 131.676 13.8096 132.08 13.9561C132.49 14.1025 132.947 14.1758 133.451 14.1758C133.762 14.1758 134.055 14.1436 134.33 14.0791C134.605 14.0146 134.866 13.9268 135.112 13.8154C135.353 13.7041 135.572 13.5752 135.771 13.4287C135.977 13.2822 136.161 13.127 136.325 12.9629C136.343 13.1621 136.369 13.3555 136.404 13.543C136.445 13.7246 136.498 13.877 136.562 14ZM133.688 12.7607C133.372 12.7607 133.094 12.7197 132.854 12.6377C132.613 12.5557 132.414 12.4414 132.256 12.2949C132.098 12.1543 131.978 11.9844 131.896 11.7852C131.819 11.5859 131.781 11.3691 131.781 11.1348C131.781 10.8887 131.825 10.6689 131.913 10.4756C132.007 10.2822 132.142 10.1152 132.317 9.97461C132.563 9.77539 132.895 9.62891 133.311 9.53516C133.732 9.43555 134.225 9.38574 134.787 9.38574H136.299V11.3105C136.205 11.498 136.076 11.6797 135.912 11.8555C135.748 12.0254 135.555 12.1777 135.332 12.3125C135.104 12.4473 134.852 12.5557 134.576 12.6377C134.301 12.7197 134.005 12.7607 133.688 12.7607ZM143.972 9.56152L147.461 14H149.526L145.088 8.4541L148.938 4.49023H146.96L143.84 7.61914L142.776 8.76172V0.5H141.142V14H142.776V10.7129L143.972 9.56152ZM155.784 2.1875H154.149V4.49023H151.653V5.74707H154.149V10.915C154.149 11.501 154.226 12.002 154.378 12.418C154.536 12.8281 154.75 13.1621 155.02 13.4199C155.289 13.6836 155.605 13.877 155.969 14C156.338 14.1172 156.733 14.1758 157.155 14.1758C157.407 14.1758 157.659 14.1641 157.911 14.1406C158.169 14.1172 158.412 14.082 158.641 14.0352C158.869 13.9941 159.08 13.9443 159.273 13.8857C159.467 13.8213 159.631 13.748 159.766 13.666L159.537 12.5146C159.438 12.5381 159.309 12.5674 159.15 12.6025C158.998 12.6318 158.834 12.6611 158.658 12.6904C158.477 12.7197 158.292 12.7461 158.104 12.7695C157.917 12.7871 157.735 12.7959 157.56 12.7959C157.319 12.7959 157.091 12.7666 156.874 12.708C156.663 12.6494 156.476 12.5469 156.312 12.4004C156.147 12.2598 156.019 12.0693 155.925 11.8291C155.831 11.5889 155.784 11.2842 155.784 10.915V5.74707H159.405V4.49023H155.784V2.1875ZM171.402 7.06543C171.426 6.18066 171.344 5.37793 171.156 4.65723C170.969 3.93066 170.688 3.30957 170.312 2.79395C169.932 2.27832 169.463 1.88281 168.906 1.60742C168.35 1.32617 167.714 1.18555 166.999 1.18555C166.267 1.18555 165.596 1.35254 164.986 1.68652C164.383 2.02051 163.858 2.48047 163.413 3.06641C162.944 3.68164 162.569 4.41113 162.288 5.25488C162.013 6.09863 161.857 6.98926 161.822 7.92676C161.793 8.82324 161.863 9.64941 162.033 10.4053C162.209 11.1553 162.493 11.8027 162.886 12.3477C163.272 12.8926 163.773 13.3174 164.389 13.6221C165.01 13.9209 165.751 14.0703 166.612 14.0703C166.8 14.0703 166.999 14.0557 167.21 14.0264C167.421 14.0029 167.629 13.9619 167.834 13.9033C168.039 13.8506 168.235 13.7832 168.423 13.7012C168.61 13.6191 168.777 13.5225 168.924 13.4111L168.643 12.3828C168.514 12.4707 168.37 12.5498 168.212 12.6201C168.054 12.6904 167.887 12.749 167.711 12.7959C167.535 12.8486 167.356 12.8896 167.175 12.9189C166.993 12.9424 166.814 12.9541 166.639 12.9541C165.982 12.9541 165.411 12.8428 164.925 12.6201C164.444 12.3916 164.049 12.0605 163.738 11.627C163.428 11.1992 163.202 10.6748 163.062 10.0537C162.921 9.43262 162.865 8.72363 162.895 7.92676C162.918 7.07715 163.038 6.29785 163.255 5.58887C163.472 4.87402 163.776 4.26465 164.169 3.76074C164.538 3.29199 164.954 2.93164 165.417 2.67969C165.886 2.42188 166.404 2.29297 166.973 2.29297C167.535 2.29297 168.036 2.40137 168.476 2.61816C168.915 2.83496 169.287 3.14844 169.592 3.55859C169.891 3.96875 170.113 4.46973 170.26 5.06152C170.406 5.65332 170.468 6.32129 170.444 7.06543C170.438 7.49316 170.406 7.89746 170.348 8.27832C170.289 8.65918 170.204 8.99023 170.093 9.27148C169.981 9.55859 169.841 9.78711 169.671 9.95703C169.507 10.1211 169.316 10.2031 169.1 10.2031C169.006 10.2031 168.918 10.1885 168.836 10.1592C168.754 10.1299 168.687 10.0713 168.634 9.9834C168.575 9.90137 168.531 9.78711 168.502 9.64062C168.473 9.48828 168.467 9.29199 168.484 9.05176L168.871 4.62207C168.719 4.41113 168.514 4.22949 168.256 4.07715C167.998 3.91895 167.673 3.83984 167.28 3.83984C166.864 3.83984 166.483 3.93945 166.138 4.13867C165.792 4.33203 165.49 4.61035 165.232 4.97363C164.969 5.34277 164.755 5.79102 164.591 6.31836C164.427 6.83984 164.318 7.42578 164.266 8.07617C164.23 8.5332 164.236 8.95215 164.283 9.33301C164.336 9.71387 164.43 10.042 164.564 10.3174C164.693 10.5928 164.863 10.8066 165.074 10.959C165.285 11.1113 165.534 11.1875 165.821 11.1875C166.021 11.1875 166.211 11.1582 166.393 11.0996C166.574 11.041 166.744 10.959 166.902 10.8535C167.031 10.7598 167.151 10.6514 167.263 10.5283C167.38 10.4053 167.485 10.2705 167.579 10.124C167.62 10.2646 167.673 10.3936 167.737 10.5107C167.802 10.6221 167.878 10.7217 167.966 10.8096C168.089 10.9326 168.235 11.0264 168.405 11.0908C168.575 11.1553 168.766 11.1875 168.977 11.1875C169.41 11.1875 169.776 11.0615 170.075 10.8096C170.374 10.5576 170.62 10.2324 170.813 9.83398C171.001 9.43555 171.142 8.99316 171.235 8.50684C171.329 8.01465 171.385 7.53418 171.402 7.06543ZM165.347 8.07617C165.394 7.5957 165.464 7.16211 165.558 6.77539C165.657 6.38281 165.786 6.04883 165.944 5.77344C166.103 5.50391 166.296 5.2959 166.524 5.14941C166.759 4.99707 167.031 4.9209 167.342 4.9209C167.43 4.9209 167.515 4.92969 167.597 4.94727C167.685 4.96484 167.77 4.99414 167.852 5.03516L167.518 8.8584L167.509 8.94629C167.444 9.08691 167.374 9.21289 167.298 9.32422C167.222 9.42969 167.143 9.52344 167.061 9.60547C166.926 9.73438 166.776 9.82812 166.612 9.88672C166.454 9.94531 166.287 9.97461 166.111 9.97461C165.971 9.97461 165.848 9.93359 165.742 9.85156C165.643 9.76367 165.561 9.6377 165.496 9.47363C165.432 9.31543 165.388 9.11914 165.364 8.88477C165.341 8.64453 165.335 8.375 165.347 8.07617ZM177.405 2.1875H175.771V4.49023H173.274V5.74707H175.771V10.915C175.771 11.501 175.847 12.002 175.999 12.418C176.157 12.8281 176.371 13.1621 176.641 13.4199C176.91 13.6836 177.227 13.877 177.59 14C177.959 14.1172 178.354 14.1758 178.776 14.1758C179.028 14.1758 179.28 14.1641 179.532 14.1406C179.79 14.1172 180.033 14.082 180.262 14.0352C180.49 13.9941 180.701 13.9443 180.895 13.8857C181.088 13.8213 181.252 13.748 181.387 13.666L181.158 12.5146C181.059 12.5381 180.93 12.5674 180.771 12.6025C180.619 12.6318 180.455 12.6611 180.279 12.6904C180.098 12.7197 179.913 12.7461 179.726 12.7695C179.538 12.7871 179.356 12.7959 179.181 12.7959C178.94 12.7959 178.712 12.7666 178.495 12.708C178.284 12.6494 178.097 12.5469 177.933 12.4004C177.769 12.2598 177.64 12.0693 177.546 11.8291C177.452 11.5889 177.405 11.2842 177.405 10.915V5.74707H181.026V4.49023H177.405V2.1875ZM184.067 9.16602V9.35059C184.067 10.0303 184.155 10.666 184.331 11.2578C184.507 11.8438 184.759 12.3535 185.087 12.7871C185.409 13.2207 185.805 13.5605 186.273 13.8066C186.742 14.0527 187.267 14.1758 187.847 14.1758C188.192 14.1758 188.515 14.1377 188.813 14.0615C189.112 13.9912 189.385 13.8887 189.631 13.7539C189.789 13.666 189.936 13.5635 190.07 13.4463C190.211 13.3291 190.343 13.2002 190.466 13.0596V13.877C190.466 14.2871 190.407 14.6504 190.29 14.9668C190.173 15.2832 190.006 15.5469 189.789 15.7578C189.566 15.9746 189.3 16.1387 188.989 16.25C188.679 16.3613 188.33 16.417 187.943 16.417C187.727 16.417 187.51 16.3936 187.293 16.3467C187.076 16.3057 186.859 16.2354 186.643 16.1357C186.426 16.0361 186.212 15.9014 186.001 15.7314C185.79 15.5674 185.585 15.3652 185.386 15.125L184.542 16.1006C184.759 16.4111 185.017 16.6719 185.315 16.8828C185.62 17.0938 185.937 17.2607 186.265 17.3838C186.587 17.5127 186.906 17.6035 187.223 17.6562C187.539 17.7148 187.82 17.7441 188.066 17.7441C188.664 17.7441 189.209 17.6562 189.701 17.4805C190.193 17.3047 190.618 17.0469 190.976 16.707C191.327 16.3672 191.6 15.9541 191.793 15.4678C191.992 14.9814 192.092 14.4248 192.092 13.7979V4.49023H190.615L190.536 5.52734C190.425 5.38672 190.305 5.25781 190.176 5.14062C190.053 5.02344 189.921 4.9209 189.78 4.83301C189.522 4.66309 189.232 4.53418 188.91 4.44629C188.594 4.3584 188.245 4.31445 187.864 4.31445C187.272 4.31445 186.742 4.43457 186.273 4.6748C185.805 4.91504 185.406 5.24902 185.078 5.67676C184.75 6.10449 184.498 6.61719 184.322 7.21484C184.152 7.80664 184.067 8.45703 184.067 9.16602ZM185.693 9.35059V9.16602C185.693 8.70312 185.74 8.26367 185.834 7.84766C185.934 7.42578 186.089 7.05371 186.3 6.73145C186.505 6.41504 186.769 6.16309 187.091 5.97559C187.419 5.78809 187.812 5.69434 188.269 5.69434C188.538 5.69434 188.784 5.72949 189.007 5.7998C189.229 5.86426 189.432 5.95508 189.613 6.07227C189.795 6.19531 189.956 6.33887 190.097 6.50293C190.237 6.66699 190.36 6.84863 190.466 7.04785V11.4072C190.36 11.6123 190.237 11.7998 190.097 11.9697C189.956 12.1396 189.798 12.2861 189.622 12.4092C189.44 12.5322 189.235 12.6289 189.007 12.6992C188.784 12.7637 188.532 12.7959 188.251 12.7959C187.8 12.7959 187.413 12.7051 187.091 12.5234C186.769 12.3359 186.505 12.084 186.3 11.7676C186.089 11.4512 185.934 11.085 185.834 10.6689C185.74 10.2529 185.693 9.81348 185.693 9.35059ZM199.378 14.1758C200.304 14.1758 201.08 13.9912 201.707 13.6221C202.34 13.2471 202.814 12.8193 203.131 12.3389L202.138 11.5654C201.839 11.9521 201.464 12.2627 201.013 12.4971C200.562 12.7314 200.046 12.8486 199.466 12.8486C199.026 12.8486 198.625 12.7666 198.262 12.6025C197.898 12.4385 197.588 12.2129 197.33 11.9258C197.078 11.6562 196.879 11.3457 196.732 10.9941C196.592 10.6426 196.501 10.2354 196.46 9.77246V9.71094H203.254V8.98145C203.254 8.31934 203.169 7.7041 202.999 7.13574C202.835 6.56738 202.583 6.07227 202.243 5.65039C201.903 5.23438 201.476 4.90918 200.96 4.6748C200.45 4.43457 199.853 4.31445 199.167 4.31445C198.622 4.31445 198.089 4.42578 197.567 4.64844C197.052 4.87109 196.592 5.19043 196.188 5.60645C195.777 6.02832 195.449 6.54395 195.203 7.15332C194.957 7.75684 194.834 8.44238 194.834 9.20996V9.5791C194.834 10.2412 194.945 10.8535 195.168 11.416C195.391 11.9785 195.701 12.4648 196.1 12.875C196.498 13.2852 196.976 13.6045 197.532 13.833C198.095 14.0615 198.71 14.1758 199.378 14.1758ZM199.167 5.65039C199.583 5.65039 199.94 5.72656 200.239 5.87891C200.544 6.03125 200.796 6.23047 200.995 6.47656C201.194 6.72266 201.35 7.01562 201.461 7.35547C201.572 7.68945 201.628 8.00293 201.628 8.2959V8.375H196.513C196.577 7.93555 196.688 7.54883 196.847 7.21484C197.011 6.875 197.21 6.58789 197.444 6.35352C197.679 6.125 197.942 5.95215 198.235 5.83496C198.528 5.71191 198.839 5.65039 199.167 5.65039ZM212.219 4.31445C211.527 4.31445 210.909 4.4668 210.364 4.77148C209.825 5.07031 209.362 5.48047 208.976 6.00195L208.967 5.76465L208.896 4.49023H207.35V14H208.984V7.90039C209.09 7.60742 209.222 7.34375 209.38 7.10938C209.544 6.86914 209.734 6.66699 209.951 6.50293C210.191 6.31543 210.473 6.1748 210.795 6.08105C211.117 5.98145 211.478 5.93164 211.876 5.93164C212.187 5.93164 212.482 5.94922 212.764 5.98438C213.051 6.01367 213.353 6.06348 213.669 6.13379L213.889 4.54297C213.725 4.47266 213.479 4.41699 213.15 4.37598C212.828 4.33496 212.518 4.31445 212.219 4.31445ZM224.857 9.35059V9.16602C224.857 8.66797 224.816 8.19629 224.734 7.75098C224.652 7.2998 224.532 6.88965 224.374 6.52051C224.222 6.19238 224.046 5.89648 223.847 5.63281C223.647 5.36328 223.422 5.13477 223.17 4.94727C222.889 4.74805 222.575 4.59277 222.229 4.48145C221.884 4.37012 221.506 4.31445 221.096 4.31445C220.768 4.31445 220.463 4.34668 220.182 4.41113C219.9 4.47559 219.643 4.56934 219.408 4.69238C219.221 4.79199 219.045 4.91211 218.881 5.05273C218.717 5.1875 218.567 5.33984 218.433 5.50977V0.5H216.807V14H218.301L218.38 12.9189C218.485 13.0537 218.597 13.1768 218.714 13.2881C218.831 13.3994 218.954 13.502 219.083 13.5957C219.353 13.7832 219.654 13.9268 219.988 14.0264C220.328 14.126 220.703 14.1758 221.113 14.1758C221.471 14.1758 221.802 14.1318 222.106 14.0439C222.417 13.9561 222.701 13.833 222.959 13.6748C223.316 13.4463 223.621 13.1592 223.873 12.8135C224.131 12.4619 224.339 12.0664 224.497 11.627C224.614 11.293 224.702 10.9355 224.761 10.5547C224.825 10.168 224.857 9.7666 224.857 9.35059ZM223.231 9.16602V9.35059C223.231 9.63184 223.214 9.90723 223.179 10.1768C223.144 10.4463 223.088 10.6982 223.012 10.9326C222.918 11.2432 222.792 11.5244 222.634 11.7764C222.476 12.0283 222.279 12.2363 222.045 12.4004C221.869 12.5293 221.67 12.6289 221.447 12.6992C221.225 12.7637 220.979 12.7959 220.709 12.7959C220.428 12.7959 220.17 12.7607 219.936 12.6904C219.701 12.6143 219.49 12.5088 219.303 12.374C219.115 12.2393 218.948 12.084 218.802 11.9082C218.661 11.7266 218.538 11.5303 218.433 11.3193V7.16211C218.532 6.95117 218.652 6.75781 218.793 6.58203C218.939 6.40039 219.106 6.24219 219.294 6.10742C219.476 5.97852 219.684 5.87891 219.918 5.80859C220.152 5.73242 220.41 5.69434 220.691 5.69434C220.949 5.69434 221.184 5.72363 221.395 5.78223C221.605 5.84082 221.796 5.92285 221.966 6.02832C222.212 6.1748 222.42 6.37695 222.59 6.63477C222.76 6.89258 222.897 7.17676 223.003 7.4873C223.079 7.73926 223.135 8.00879 223.17 8.2959C223.211 8.57715 223.231 8.86719 223.231 9.16602ZM231.81 14.1758C232.735 14.1758 233.512 13.9912 234.139 13.6221C234.771 13.2471 235.246 12.8193 235.562 12.3389L234.569 11.5654C234.271 11.9521 233.896 12.2627 233.444 12.4971C232.993 12.7314 232.478 12.8486 231.897 12.8486C231.458 12.8486 231.057 12.7666 230.693 12.6025C230.33 12.4385 230.02 12.2129 229.762 11.9258C229.51 11.6562 229.311 11.3457 229.164 10.9941C229.023 10.6426 228.933 10.2354 228.892 9.77246V9.71094H235.686V8.98145C235.686 8.31934 235.601 7.7041 235.431 7.13574C235.267 6.56738 235.015 6.07227 234.675 5.65039C234.335 5.23438 233.907 4.90918 233.392 4.6748C232.882 4.43457 232.284 4.31445 231.599 4.31445C231.054 4.31445 230.521 4.42578 229.999 4.64844C229.483 4.87109 229.023 5.19043 228.619 5.60645C228.209 6.02832 227.881 6.54395 227.635 7.15332C227.389 7.75684 227.266 8.44238 227.266 9.20996V9.5791C227.266 10.2412 227.377 10.8535 227.6 11.416C227.822 11.9785 228.133 12.4648 228.531 12.875C228.93 13.2852 229.407 13.6045 229.964 13.833C230.526 14.0615 231.142 14.1758 231.81 14.1758ZM231.599 5.65039C232.015 5.65039 232.372 5.72656 232.671 5.87891C232.976 6.03125 233.228 6.23047 233.427 6.47656C233.626 6.72266 233.781 7.01562 233.893 7.35547C234.004 7.68945 234.06 8.00293 234.06 8.2959V8.375H228.944C229.009 7.93555 229.12 7.54883 229.278 7.21484C229.442 6.875 229.642 6.58789 229.876 6.35352C230.11 6.125 230.374 5.95215 230.667 5.83496C230.96 5.71191 231.271 5.65039 231.599 5.65039ZM244.65 4.31445C243.959 4.31445 243.341 4.4668 242.796 4.77148C242.257 5.07031 241.794 5.48047 241.407 6.00195L241.398 5.76465L241.328 4.49023H239.781V14H241.416V7.90039C241.521 7.60742 241.653 7.34375 241.812 7.10938C241.976 6.86914 242.166 6.66699 242.383 6.50293C242.623 6.31543 242.904 6.1748 243.227 6.08105C243.549 5.98145 243.909 5.93164 244.308 5.93164C244.618 5.93164 244.914 5.94922 245.195 5.98438C245.482 6.01367 245.784 6.06348 246.101 6.13379L246.32 4.54297C246.156 4.47266 245.91 4.41699 245.582 4.37598C245.26 4.33496 244.949 4.31445 244.65 4.31445ZM252.06 12.9453C252.06 13.2852 252.165 13.5752 252.376 13.8154C252.593 14.0498 252.912 14.167 253.334 14.167C253.75 14.167 254.069 14.0498 254.292 13.8154C254.515 13.5811 254.626 13.291 254.626 12.9453C254.626 12.5938 254.515 12.2979 254.292 12.0576C254.075 11.8115 253.756 11.6885 253.334 11.6885C252.906 11.6885 252.587 11.8115 252.376 12.0576C252.165 12.3037 252.06 12.5996 252.06 12.9453ZM260.04 14H261.666V7.17969C261.777 6.97461 261.906 6.78711 262.053 6.61719C262.205 6.44727 262.369 6.29785 262.545 6.16895C262.762 6.02246 262.999 5.9082 263.257 5.82617C263.515 5.73828 263.793 5.69434 264.092 5.69434C264.438 5.69434 264.742 5.73535 265.006 5.81738C265.275 5.89941 265.504 6.03125 265.691 6.21289C265.873 6.39453 266.011 6.63184 266.104 6.9248C266.198 7.21777 266.245 7.5752 266.245 7.99707V14H267.871V7.96191C267.871 7.3291 267.792 6.78418 267.634 6.32715C267.481 5.86426 267.262 5.4834 266.975 5.18457C266.688 4.88574 266.339 4.66602 265.929 4.52539C265.524 4.38477 265.073 4.31445 264.575 4.31445C264.206 4.32031 263.854 4.37598 263.521 4.48145C263.192 4.58105 262.888 4.72461 262.606 4.91211C262.419 5.03516 262.24 5.18164 262.07 5.35156C261.906 5.51562 261.754 5.69727 261.613 5.89648L261.499 4.49023H260.04V14ZM275.052 14.1758C275.978 14.1758 276.754 13.9912 277.381 13.6221C278.014 13.2471 278.488 12.8193 278.805 12.3389L277.812 11.5654C277.513 11.9521 277.138 12.2627 276.687 12.4971C276.235 12.7314 275.72 12.8486 275.14 12.8486C274.7 12.8486 274.299 12.7666 273.936 12.6025C273.572 12.4385 273.262 12.2129 273.004 11.9258C272.752 11.6562 272.553 11.3457 272.406 10.9941C272.266 10.6426 272.175 10.2354 272.134 9.77246V9.71094H278.928V8.98145C278.928 8.31934 278.843 7.7041 278.673 7.13574C278.509 6.56738 278.257 6.07227 277.917 5.65039C277.577 5.23438 277.149 4.90918 276.634 4.6748C276.124 4.43457 275.526 4.31445 274.841 4.31445C274.296 4.31445 273.763 4.42578 273.241 4.64844C272.726 4.87109 272.266 5.19043 271.861 5.60645C271.451 6.02832 271.123 6.54395 270.877 7.15332C270.631 7.75684 270.508 8.44238 270.508 9.20996V9.5791C270.508 10.2412 270.619 10.8535 270.842 11.416C271.064 11.9785 271.375 12.4648 271.773 12.875C272.172 13.2852 272.649 13.6045 273.206 13.833C273.769 14.0615 274.384 14.1758 275.052 14.1758ZM274.841 5.65039C275.257 5.65039 275.614 5.72656 275.913 5.87891C276.218 6.03125 276.47 6.23047 276.669 6.47656C276.868 6.72266 277.023 7.01562 277.135 7.35547C277.246 7.68945 277.302 8.00293 277.302 8.2959V8.375H272.187C272.251 7.93555 272.362 7.54883 272.521 7.21484C272.685 6.875 272.884 6.58789 273.118 6.35352C273.353 6.125 273.616 5.95215 273.909 5.83496C274.202 5.71191 274.513 5.65039 274.841 5.65039ZM285.511 2.1875H283.876V4.49023H281.38V5.74707H283.876V10.915C283.876 11.501 283.952 12.002 284.104 12.418C284.263 12.8281 284.477 13.1621 284.746 13.4199C285.016 13.6836 285.332 13.877 285.695 14C286.064 14.1172 286.46 14.1758 286.882 14.1758C287.134 14.1758 287.386 14.1641 287.638 14.1406C287.896 14.1172 288.139 14.082 288.367 14.0352C288.596 13.9941 288.807 13.9443 289 13.8857C289.193 13.8213 289.357 13.748 289.492 13.666L289.264 12.5146C289.164 12.5381 289.035 12.5674 288.877 12.6025C288.725 12.6318 288.561 12.6611 288.385 12.6904C288.203 12.7197 288.019 12.7461 287.831 12.7695C287.644 12.7871 287.462 12.7959 287.286 12.7959C287.046 12.7959 286.817 12.7666 286.601 12.708C286.39 12.6494 286.202 12.5469 286.038 12.4004C285.874 12.2598 285.745 12.0693 285.651 11.8291C285.558 11.5889 285.511 11.2842 285.511 10.915V5.74707H289.132V4.49023H285.511V2.1875Z" fill="#45E7CA"/>
</g>
<defs>
<filter id="filter0_i_2_6" x="0.657227" y="0.5" width="288.835" height="21.2441" filterUnits="userSpaceOnUse" color-interpolation-filters="sRGB">
<feFlood flood-opacity="0" result="BackgroundImageFix"/>
<feBlend mode="normal" in="SourceGraphic" in2="BackgroundImageFix" result="shape"/>
<feColorMatrix in="SourceAlpha" type="matrix" values="0 0 0 0 0 0 0 0 0 0 0 0 0 0 0 0 0 0 127 0" result="hardAlpha"/>
<feOffset dy="4"/>
<feGaussianBlur stdDeviation="2"/>
<feComposite in2="hardAlpha" operator="arithmetic" k2="-1" k3="1"/>
<feColorMatrix type="matrix" values="0 0 0 0 0 0 0 0 0 0 0 0 0 0 0 0 0 0 0.25 0"/>
<feBlend mode="normal" in2="shape" result="effect1_innerShadow_2_6"/>
</filter>
</defs>
</svg>
