<?xml version="1.0" encoding="UTF-8" standalone="no"?>
<!-- Created with Inkscape (http://www.inkscape.org/) -->

<svg
   width="439.104"
   height="134.40001"
   viewBox="0 0 439.104 134.40001"
   version="1.1"
   id="svg5"
   inkscape:version="1.2.1 (9c6d41e410, 2022-07-14)"
   sodipodi:docname="logo.svg"
   inkscape:export-filename="logo-plain-black.svg"
   inkscape:export-xdpi="96"
   inkscape:export-ydpi="96"
   xmlns:inkscape="http://www.inkscape.org/namespaces/inkscape"
   xmlns:sodipodi="http://sodipodi.sourceforge.net/DTD/sodipodi-0.dtd"
   xmlns="http://www.w3.org/2000/svg"
   xmlns:svg="http://www.w3.org/2000/svg">
  <sodipodi:namedview
     id="namedview7"
     pagecolor="#505050"
     bordercolor="#eeeeee"
     borderopacity="1"
     inkscape:showpageshadow="0"
     inkscape:pageopacity="0"
     inkscape:pagecheckerboard="0"
     inkscape:deskcolor="#505050"
     inkscape:document-units="px"
     showgrid="true"
     inkscape:zoom="4"
     inkscape:cx="145.375"
     inkscape:cy="270.125"
     inkscape:window-width="3376"
     inkscape:window-height="1371"
     inkscape:window-x="0"
     inkscape:window-y="0"
     inkscape:window-maximized="1"
     inkscape:current-layer="layer1">
    <inkscape:grid
       type="xygrid"
       id="grid9" />
  </sodipodi:namedview>
  <defs
     id="defs2">
    <rect
       x="25.536554"
       y="147.83147"
       width="466.51053"
       height="218.36926"
       id="rect115" />
  </defs>
  <g
     inkscape:groupmode="layer"
     id="layer2"
     inkscape:label="bg"
     style="display:inline"
     transform="translate(-25.97398,-188.8)">
    <rect
       style="font-variation-settings:'wght' 400;display:none;fill:#000000"
       id="rect386"
       width="512"
       height="512"
       x="0"
       y="0" />
  </g>
  <g
     inkscape:label="Layer 1"
     inkscape:groupmode="layer"
     id="layer1"
     transform="translate(-25.97398,-188.8)">
    <rect
       style="font-variation-settings:'wght' 400;display:inline;fill:#000000"
       id="rect575"
       width="24.575821"
       height="13.056"
       x="317.04617"
       y="310.14401" />
    <rect
       style="font-variation-settings:'wght' 400;display:inline;fill:#000000;stroke-width:1.10899"
       id="rect577"
       width="28.607983"
       height="13.247999"
       x="417.26999"
       y="229.312" />
    <rect
       style="font-variation-settings:'wght' 400;display:inline;fill:#000000;stroke-width:1.009"
       id="rect573"
       width="23.040173"
       height="14.592"
       x="107.18998"
       y="188.8" />
    <rect
       style="font-variation-settings:'wght' 400;display:inline;fill:#000000;stroke-width:0.917843"
       id="rect541"
       width="20.927862"
       height="13.248011"
       x="226.23032"
       y="229.312" />
    <rect
       style="font-variation-settings:'wght' 400;display:inline;fill:#000000;stroke-width:1.76289"
       id="rect570"
       width="15.168"
       height="65.280151"
       x="308.03201"
       y="-210.67831"
       transform="rotate(90)" />
    <rect
       style="font-variation-settings:'wght' 400;display:none;fill:#000000"
       id="rect776"
       width="28.173117"
       height="3.7558112"
       x="453.55798"
       y="191.48801" />
    <g
       aria-label="Fl1tzi"
       transform="translate(-14.92313,3.30527)"
       id="text113"
       style="font-size:192px;font-family:'Space Grotesk';-inkscape-font-specification:'Space Grotesk, @wght=400';font-variation-settings:'wght' 400;white-space:pre;shape-inside:url(#rect115);display:inline;fill:#000000">
      <path
         d="m 40.897109,319.89473 v -134.4 h 81.216001 v 14.592 H 57.025109 v 45.12 h 59.904001 v 14.592 H 57.025109 v 60.096 z"
         id="path607"
         style="fill:#000000" />
      <path
         d="m 145.15329,319.89473 v -134.4 h 15.168 v 134.4 z"
         id="path609"
         style="fill:#000000" />
      <path
         d="m 225.60145,319.89473 v -124.032 h -2.88 l -26.112,47.808 h -16.896 l 32.064,-58.176 h 29.376 v 134.4 z"
         id="path611"
         style="fill:#000000" />
      <path
         d="m 307.00931,319.89473 q -8.064,0 -12.48,-4.416 -4.224,-4.416 -4.224,-12.096 v -64.128 h -28.224 v -13.248 h 28.224 v -33.408 h 15.168 v 33.408 h 30.72 v 13.248 h -30.72 v 61.824 q 0,5.76 5.568,5.76 h 20.928 v 13.056 z"
         id="path613"
         style="fill:#000000" />
      <path
         d="m 356.54513,319.89473 v -19.584 l 59.712,-58.944 v -2.112 h -57.792 v -13.248 h 73.728 v 19.584 l -59.904,58.944 v 2.304 h 61.44 v 13.056 z"
         id="path615"
         style="fill:#000000" />
      <path
         d="m 460.80111,319.89473 v -93.888 h 15.168 v 93.888 z m 7.68,-108.48 q -4.992,0 -8.448,-3.264 -3.264,-3.264 -3.264,-8.256 0,-5.184 3.264,-8.448 3.456,-3.264 8.448,-3.264 4.992,0 8.256,3.264 3.264,3.264 3.264,8.448 0,4.992 -3.264,8.256 -3.264,3.264 -8.256,3.264 z"
         id="path617"
         style="fill:#000000" />
    </g>
  </g>
</svg>
