<svg width="620" height="92" viewBox="0 0 620 92" fill="none" xmlns="http://www.w3.org/2000/svg">
<g filter="url(#filter0_i_2_3)">
<path d="M22.0781 9H13.3594V21.2812H0.046875V27.9844H13.3594V55.5469C13.3594 58.6719 13.7656 61.3438 14.5781 63.5625C15.4219 65.75 16.5625 67.5312 18 68.9062C19.4375 70.3125 21.125 71.3438 23.0625 72C25.0312 72.625 27.1406 72.9375 29.3906 72.9375C30.7344 72.9375 32.0781 72.875 33.4219 72.75C34.7969 72.625 36.0938 72.4375 37.3125 72.1875C38.5312 71.9688 39.6562 71.7031 40.6875 71.3906C41.7188 71.0469 42.5938 70.6562 43.3125 70.2188L42.0938 64.0781C41.5625 64.2031 40.875 64.3594 40.0312 64.5469C39.2188 64.7031 38.3438 64.8594 37.4062 65.0156C36.4375 65.1719 35.4531 65.3125 34.4531 65.4375C33.4531 65.5312 32.4844 65.5781 31.5469 65.5781C30.2656 65.5781 29.0469 65.4219 27.8906 65.1094C26.7656 64.7969 25.7656 64.25 24.8906 63.4688C24.0156 62.7188 23.3281 61.7031 22.8281 60.4219C22.3281 59.1406 22.0781 57.5156 22.0781 55.5469V27.9844H41.3906V21.2812H22.0781V9ZM57.6094 46.2188V47.2031C57.6094 50.8281 58.0781 54.2188 59.0156 57.375C59.9531 60.5 61.2969 63.2188 63.0469 65.5312C64.7656 67.8438 66.875 69.6562 69.375 70.9688C71.875 72.2812 74.6719 72.9375 77.7656 72.9375C79.6094 72.9375 81.3281 72.7344 82.9219 72.3281C84.5156 71.9531 85.9688 71.4062 87.2812 70.6875C88.125 70.2188 88.9062 69.6719 89.625 69.0469C90.375 68.4219 91.0781 67.7344 91.7344 66.9844V71.3438C91.7344 73.5312 91.4219 75.4688 90.7969 77.1562C90.1719 78.8438 89.2812 80.25 88.125 81.375C86.9375 82.5312 85.5156 83.4062 83.8594 84C82.2031 84.5938 80.3438 84.8906 78.2812 84.8906C77.125 84.8906 75.9688 84.7656 74.8125 84.5156C73.6562 84.2969 72.5 83.9219 71.3438 83.3906C70.1875 82.8594 69.0469 82.1406 67.9219 81.2344C66.7969 80.3594 65.7031 79.2812 64.6406 78L60.1406 83.2031C61.2969 84.8594 62.6719 86.25 64.2656 87.375C65.8906 88.5 67.5781 89.3906 69.3281 90.0469C71.0469 90.7344 72.75 91.2188 74.4375 91.5C76.125 91.8125 77.625 91.9688 78.9375 91.9688C82.125 91.9688 85.0312 91.5 87.6562 90.5625C90.2812 89.625 92.5469 88.25 94.4531 86.4375C96.3281 84.625 97.7812 82.4219 98.8125 79.8281C99.875 77.2344 100.406 74.2656 100.406 70.9219V21.2812H92.5312L92.1094 26.8125C91.5156 26.0625 90.875 25.375 90.1875 24.75C89.5312 24.125 88.8281 23.5781 88.0781 23.1094C86.7031 22.2031 85.1562 21.5156 83.4375 21.0469C81.75 20.5781 79.8906 20.3438 77.8594 20.3438C74.7031 20.3438 71.875 20.9844 69.375 22.2656C66.875 23.5469 64.75 25.3281 63 27.6094C61.25 29.8906 59.9062 32.625 58.9688 35.8125C58.0625 38.9688 57.6094 42.4375 57.6094 46.2188ZM66.2812 47.2031V46.2188C66.2812 43.75 66.5312 41.4062 67.0312 39.1875C67.5625 36.9375 68.3906 34.9531 69.5156 33.2344C70.6094 31.5469 72.0156 30.2031 73.7344 29.2031C75.4844 28.2031 77.5781 27.7031 80.0156 27.7031C81.4531 27.7031 82.7656 27.8906 83.9531 28.2656C85.1406 28.6094 86.2188 29.0938 87.1875 29.7188C88.1562 30.375 89.0156 31.1406 89.7656 32.0156C90.5156 32.8906 91.1719 33.8594 91.7344 34.9219V58.1719C91.1719 59.2656 90.5156 60.2656 89.7656 61.1719C89.0156 62.0781 88.1719 62.8594 87.2344 63.5156C86.2656 64.1719 85.1719 64.6875 83.9531 65.0625C82.7656 65.4062 81.4219 65.5781 79.9219 65.5781C77.5156 65.5781 75.4531 65.0938 73.7344 64.125C72.0156 63.125 70.6094 61.7812 69.5156 60.0938C68.3906 58.4062 67.5625 56.4531 67.0312 54.2344C66.5312 52.0156 66.2812 49.6719 66.2812 47.2031ZM139.266 72.9375C144.203 72.9375 148.344 71.9531 151.688 69.9844C155.062 67.9844 157.594 65.7031 159.281 63.1406L153.984 59.0156C152.391 61.0781 150.391 62.7344 147.984 63.9844C145.578 65.2344 142.828 65.8594 139.734 65.8594C137.391 65.8594 135.25 65.4219 133.312 64.5469C131.375 63.6719 129.719 62.4688 128.344 60.9375C127 59.5 125.938 57.8438 125.156 55.9688C124.406 54.0938 123.922 51.9219 123.703 49.4531V49.125H159.938V45.2344C159.938 41.7031 159.484 38.4219 158.578 35.3906C157.703 32.3594 156.359 29.7188 154.547 27.4688C152.734 25.25 150.453 23.5156 147.703 22.2656C144.984 20.9844 141.797 20.3438 138.141 20.3438C135.234 20.3438 132.391 20.9375 129.609 22.125C126.859 23.3125 124.406 25.0156 122.25 27.2344C120.062 29.4844 118.312 32.2344 117 35.4844C115.688 38.7031 115.031 42.3594 115.031 46.4531V48.4219C115.031 51.9531 115.625 55.2188 116.812 58.2188C118 61.2188 119.656 63.8125 121.781 66C123.906 68.1875 126.453 69.8906 129.422 71.1094C132.422 72.3281 135.703 72.9375 139.266 72.9375ZM138.141 27.4688C140.359 27.4688 142.266 27.875 143.859 28.6875C145.484 29.5 146.828 30.5625 147.891 31.875C148.953 33.1875 149.781 34.75 150.375 36.5625C150.969 38.3438 151.266 40.0156 151.266 41.5781V42H123.984C124.328 39.6562 124.922 37.5938 125.766 35.8125C126.641 34 127.703 32.4688 128.953 31.2188C130.203 30 131.609 29.0781 133.172 28.4531C134.734 27.7969 136.391 27.4688 138.141 27.4688ZM207.75 20.3438C204.062 20.3438 200.766 21.1562 197.859 22.7812C194.984 24.375 192.516 26.5625 190.453 29.3438L190.406 28.0781L190.031 21.2812H181.781V72H190.5V39.4688C191.062 37.9062 191.766 36.5 192.609 35.25C193.484 33.9688 194.5 32.8906 195.656 32.0156C196.938 31.0156 198.438 30.2656 200.156 29.7656C201.875 29.2344 203.797 28.9688 205.922 28.9688C207.578 28.9688 209.156 29.0625 210.656 29.25C212.188 29.4062 213.797 29.6719 215.484 30.0469L216.656 21.5625C215.781 21.1875 214.469 20.8906 212.719 20.6719C211 20.4531 209.344 20.3438 207.75 20.3438ZM275.156 47.2031V46.2188C275.156 43.5625 274.938 41.0469 274.5 38.6719C274.062 36.2656 273.422 34.0781 272.578 32.1094C271.766 30.3594 270.828 28.7812 269.766 27.375C268.703 25.9375 267.5 24.7188 266.156 23.7188C264.656 22.6562 262.984 21.8281 261.141 21.2344C259.297 20.6406 257.281 20.3438 255.094 20.3438C253.344 20.3438 251.719 20.5156 250.219 20.8594C248.719 21.2031 247.344 21.7031 246.094 22.3594C245.094 22.8906 244.156 23.5312 243.281 24.2812C242.406 25 241.609 25.8125 240.891 26.7188V0H232.219V72H240.188L240.609 66.2344C241.172 66.9531 241.766 67.6094 242.391 68.2031C243.016 68.7969 243.672 69.3438 244.359 69.8438C245.797 70.8438 247.406 71.6094 249.188 72.1406C251 72.6719 253 72.9375 255.188 72.9375C257.094 72.9375 258.859 72.7031 260.484 72.2344C262.141 71.7656 263.656 71.1094 265.031 70.2656C266.938 69.0469 268.562 67.5156 269.906 65.6719C271.281 63.7969 272.391 61.6875 273.234 59.3438C273.859 57.5625 274.328 55.6562 274.641 53.625C274.984 51.5625 275.156 49.4219 275.156 47.2031ZM266.484 46.2188V47.2031C266.484 48.7031 266.391 50.1719 266.203 51.6094C266.016 53.0469 265.719 54.3906 265.312 55.6406C264.812 57.2969 264.141 58.7969 263.297 60.1406C262.453 61.4844 261.406 62.5938 260.156 63.4688C259.219 64.1562 258.156 64.6875 256.969 65.0625C255.781 65.4062 254.469 65.5781 253.031 65.5781C251.531 65.5781 250.156 65.3906 248.906 65.0156C247.656 64.6094 246.531 64.0469 245.531 63.3281C244.531 62.6094 243.641 61.7812 242.859 60.8438C242.109 59.875 241.453 58.8281 240.891 57.7031V35.5312C241.422 34.4062 242.062 33.375 242.812 32.4375C243.594 31.4688 244.484 30.625 245.484 29.9062C246.453 29.2188 247.562 28.6875 248.812 28.3125C250.062 27.9062 251.438 27.7031 252.938 27.7031C254.312 27.7031 255.562 27.8594 256.688 28.1719C257.812 28.4844 258.828 28.9219 259.734 29.4844C261.047 30.2656 262.156 31.3438 263.062 32.7188C263.969 34.0938 264.703 35.6094 265.266 37.2656C265.672 38.6094 265.969 40.0469 266.156 41.5781C266.375 43.0781 266.484 44.625 266.484 46.2188ZM312.234 72.9375C317.172 72.9375 321.312 71.9531 324.656 69.9844C328.031 67.9844 330.562 65.7031 332.25 63.1406L326.953 59.0156C325.359 61.0781 323.359 62.7344 320.953 63.9844C318.547 65.2344 315.797 65.8594 312.703 65.8594C310.359 65.8594 308.219 65.4219 306.281 64.5469C304.344 63.6719 302.688 62.4688 301.312 60.9375C299.969 59.5 298.906 57.8438 298.125 55.9688C297.375 54.0938 296.891 51.9219 296.672 49.4531V49.125H332.906V45.2344C332.906 41.7031 332.453 38.4219 331.547 35.3906C330.672 32.3594 329.328 29.7188 327.516 27.4688C325.703 25.25 323.422 23.5156 320.672 22.2656C317.953 20.9844 314.766 20.3438 311.109 20.3438C308.203 20.3438 305.359 20.9375 302.578 22.125C299.828 23.3125 297.375 25.0156 295.219 27.2344C293.031 29.4844 291.281 32.2344 289.969 35.4844C288.656 38.7031 288 42.3594 288 46.4531V48.4219C288 51.9531 288.594 55.2188 289.781 58.2188C290.969 61.2188 292.625 63.8125 294.75 66C296.875 68.1875 299.422 69.8906 302.391 71.1094C305.391 72.3281 308.672 72.9375 312.234 72.9375ZM311.109 27.4688C313.328 27.4688 315.234 27.875 316.828 28.6875C318.453 29.5 319.797 30.5625 320.859 31.875C321.922 33.1875 322.75 34.75 323.344 36.5625C323.938 38.3438 324.234 40.0156 324.234 41.5781V42H296.953C297.297 39.6562 297.891 37.5938 298.734 35.8125C299.609 34 300.672 32.4688 301.922 31.2188C303.172 30 304.578 29.0781 306.141 28.4531C307.703 27.7969 309.359 27.4688 311.109 27.4688ZM380.719 20.3438C377.031 20.3438 373.734 21.1562 370.828 22.7812C367.953 24.375 365.484 26.5625 363.422 29.3438L363.375 28.0781L363 21.2812H354.75V72H363.469V39.4688C364.031 37.9062 364.734 36.5 365.578 35.25C366.453 33.9688 367.469 32.8906 368.625 32.0156C369.906 31.0156 371.406 30.2656 373.125 29.7656C374.844 29.2344 376.766 28.9688 378.891 28.9688C380.547 28.9688 382.125 29.0625 383.625 29.25C385.156 29.4062 386.766 29.6719 388.453 30.0469L389.625 21.5625C388.75 21.1875 387.438 20.8906 385.688 20.6719C383.969 20.4531 382.312 20.3438 380.719 20.3438ZM420.234 66.375C420.234 68.1875 420.797 69.7344 421.922 71.0156C423.078 72.2656 424.781 72.8906 427.031 72.8906C429.25 72.8906 430.953 72.2656 432.141 71.0156C433.328 69.7656 433.922 68.2188 433.922 66.375C433.922 64.5 433.328 62.9219 432.141 61.6406C430.984 60.3281 429.281 59.6719 427.031 59.6719C424.75 59.6719 423.047 60.3281 421.922 61.6406C420.797 62.9531 420.234 64.5312 420.234 66.375ZM462.797 72H471.469V35.625C472.062 34.5312 472.75 33.5312 473.531 32.625C474.344 31.7188 475.219 30.9219 476.156 30.2344C477.312 29.4531 478.578 28.8438 479.953 28.4062C481.328 27.9375 482.812 27.7031 484.406 27.7031C486.25 27.7031 487.875 27.9219 489.281 28.3594C490.719 28.7969 491.938 29.5 492.938 30.4688C493.906 31.4375 494.641 32.7031 495.141 34.2656C495.641 35.8281 495.891 37.7344 495.891 39.9844V72H504.562V39.7969C504.562 36.4219 504.141 33.5156 503.297 31.0781C502.484 28.6094 501.312 26.5781 499.781 24.9844C498.25 23.3906 496.391 22.2188 494.203 21.4688C492.047 20.7188 489.641 20.3438 486.984 20.3438C485.016 20.375 483.141 20.6719 481.359 21.2344C479.609 21.7656 477.984 22.5313 476.484 23.5312C475.484 24.1875 474.531 24.9688 473.625 25.875C472.75 26.75 471.938 27.7188 471.188 28.7812L470.578 21.2812H462.797V72ZM542.859 72.9375C547.797 72.9375 551.938 71.9531 555.281 69.9844C558.656 67.9844 561.188 65.7031 562.875 63.1406L557.578 59.0156C555.984 61.0781 553.984 62.7344 551.578 63.9844C549.172 65.2344 546.422 65.8594 543.328 65.8594C540.984 65.8594 538.844 65.4219 536.906 64.5469C534.969 63.6719 533.312 62.4688 531.938 60.9375C530.594 59.5 529.531 57.8438 528.75 55.9688C528 54.0938 527.516 51.9219 527.297 49.4531V49.125H563.531V45.2344C563.531 41.7031 563.078 38.4219 562.172 35.3906C561.297 32.3594 559.953 29.7188 558.141 27.4688C556.328 25.25 554.047 23.5156 551.297 22.2656C548.578 20.9844 545.391 20.3438 541.734 20.3438C538.828 20.3438 535.984 20.9375 533.203 22.125C530.453 23.3125 528 25.0156 525.844 27.2344C523.656 29.4844 521.906 32.2344 520.594 35.4844C519.281 38.7031 518.625 42.3594 518.625 46.4531V48.4219C518.625 51.9531 519.219 55.2188 520.406 58.2188C521.594 61.2188 523.25 63.8125 525.375 66C527.5 68.1875 530.047 69.8906 533.016 71.1094C536.016 72.3281 539.297 72.9375 542.859 72.9375ZM541.734 27.4688C543.953 27.4688 545.859 27.875 547.453 28.6875C549.078 29.5 550.422 30.5625 551.484 31.875C552.547 33.1875 553.375 34.75 553.969 36.5625C554.562 38.3438 554.859 40.0156 554.859 41.5781V42H527.578C527.922 39.6562 528.516 37.5938 529.359 35.8125C530.234 34 531.297 32.4688 532.547 31.2188C533.797 30 535.203 29.0781 536.766 28.4531C538.328 27.7969 539.984 27.4688 541.734 27.4688ZM598.641 9H589.922V21.2812H576.609V27.9844H589.922V55.5469C589.922 58.6719 590.328 61.3438 591.141 63.5625C591.984 65.75 593.125 67.5312 594.562 68.9062C596 70.3125 597.688 71.3438 599.625 72C601.594 72.625 603.703 72.9375 605.953 72.9375C607.297 72.9375 608.641 72.875 609.984 72.75C611.359 72.625 612.656 72.4375 613.875 72.1875C615.094 71.9688 616.219 71.7031 617.25 71.3906C618.281 71.0469 619.156 70.6562 619.875 70.2188L618.656 64.0781C618.125 64.2031 617.438 64.3594 616.594 64.5469C615.781 64.7031 614.906 64.8594 613.969 65.0156C613 65.1719 612.016 65.3125 611.016 65.4375C610.016 65.5312 609.047 65.5781 608.109 65.5781C606.828 65.5781 605.609 65.4219 604.453 65.1094C603.328 64.7969 602.328 64.25 601.453 63.4688C600.578 62.7188 599.891 61.7031 599.391 60.4219C598.891 59.1406 598.641 57.5156 598.641 55.5469V27.9844H617.953V21.2812H598.641V9Z" fill="#45E7CA"/>
</g>
<defs>
<filter id="filter0_i_2_3" x="0.046875" y="0" width="619.828" height="95.9688" filterUnits="userSpaceOnUse" color-interpolation-filters="sRGB">
<feFlood flood-opacity="0" result="BackgroundImageFix"/>
<feBlend mode="normal" in="SourceGraphic" in2="BackgroundImageFix" result="shape"/>
<feColorMatrix in="SourceAlpha" type="matrix" values="0 0 0 0 0 0 0 0 0 0 0 0 0 0 0 0 0 0 127 0" result="hardAlpha"/>
<feOffset dy="4"/>
<feGaussianBlur stdDeviation="2"/>
<feComposite in2="hardAlpha" operator="arithmetic" k2="-1" k3="1"/>
<feColorMatrix type="matrix" values="0 0 0 0 0 0 0 0 0 0 0 0 0 0 0 0 0 0 0.25 0"/>
<feBlend mode="normal" in2="shape" result="effect1_innerShadow_2_3"/>
</filter>
</defs>
</svg>
